<svg width="128" height="128" viewBox="0 0 128 128" xmlns="http://www.w3.org/2000/svg">
  <!-- Small-size variant (v0.7 T2) for the 16 and 32 PNGs: same "S" monogram,
       but only the central gold diamond (slightly enlarged) — the two white side
       diamonds drop out so the glyph stays legible at favicon sizes. -->
  <defs>
    <linearGradient id="g2bg" x1="0" y1="0" x2="0" y2="1">
      <stop offset="0" stop-color="#1a2030"/><stop offset="1" stop-color="#0c0f16"/>
    </linearGradient>
    <linearGradient id="g2s" x1="0" y1="0" x2="1" y2="1">
      <stop offset="0" stop-color="#88aaff"/><stop offset="1" stop-color="#3a76ff"/>
    </linearGradient>
    <linearGradient id="g2gold" x1="0" y1="0" x2="0" y2="1">
      <stop offset="0" stop-color="#ffe08a"/><stop offset="1" stop-color="#f5a623"/>
    </linearGradient>
  </defs>
  <rect x="4" y="4" width="120" height="120" rx="27" fill="url(#g2bg)"/>
  <path d="M88 46 C88 33 76 28 64 28 C50 28 40 35 40 48 C40 60 53 63 64 66 C75 69 88 72 88 84 C88 97 76 102 64 102 C51 102 40 97 40 84" fill="none" stroke="url(#g2s)" stroke-width="13" stroke-linecap="round"/>
  <path d="M64 56 L75 67 L64 78 L53 67 Z" fill="url(#g2gold)"/>
</svg>
